<svg width="321" height="109" viewBox="0 0 321 109" fill="none" xmlns="http://www.w3.org/2000/svg">
<g clip-path="url(#clip0_12_116)">
<path fill-rule="evenodd" clip-rule="evenodd" d="M37.5504 13.256C23.8205 14.7098 11.0305 23.8563 4.95739 36.5643C3.44603 39.7267 2.32485 43.0638 1.56857 46.6501C0.810478 50.2455 0.810478 59.0113 1.56857 62.6067C5.08263 79.2708 17.0694 91.477 33.6949 95.3219C36.7056 96.0183 37.825 96.124 42.2754 96.1324C48.7902 96.1451 52.7835 95.3942 58.3148 93.1169C71.4684 87.701 81.1435 75.6625 83.5006 61.7788C84.1187 58.1364 84.1187 51.1204 83.5006 47.478C81.8887 37.9839 76.5655 28.813 69.0659 22.6098C60.2034 15.2794 49.2219 12.0201 37.5504 13.256ZM47.9957 17.4881C54.5123 18.4732 59.8665 20.7447 65.2186 24.795C72.1235 30.0209 76.8232 37.2053 79.0246 45.901C79.7869 48.9126 79.8619 49.6951 79.8619 54.6284C79.8619 59.5524 79.786 60.3478 79.0306 63.3311C75.8788 75.7781 67.3667 85.384 55.5224 89.8594C46.1471 93.402 34.2335 92.7231 25.4833 88.1481C18.628 84.5636 12.3576 78.3709 9.22382 72.0903C6.05418 65.7381 5.02603 61.4699 5.0164 54.6284C5.00195 44.1184 8.82009 35.0271 16.2794 27.8111C23.1094 21.2035 30.4533 17.9309 40.469 17.0313C42.0496 16.8892 45.3661 17.0907 47.9957 17.4881ZM37.9099 19.7018C34.8589 20.1065 32.2612 20.6999 32.0511 21.0398C31.9806 21.1539 37.5378 26.8606 44.4 33.7213L56.8772 46.1958V34.2648C56.8772 23.1659 56.8404 22.3223 56.3503 22.1682C56.0604 22.0769 55.2138 21.7741 54.4686 21.495C52.0101 20.5737 50.1453 20.1447 46.6523 19.6961C42.6698 19.1846 41.8045 19.1852 37.9099 19.7018ZM27.467 22.7122C23.7907 24.443 21.0341 26.4497 17.5685 29.9186C15.3186 32.1705 13.7281 34.0832 12.6683 35.8117L11.0992 38.3707L19.9885 38.4505C24.8776 38.4945 32.9085 38.4945 37.8346 38.4505L46.7914 38.3707L38.5129 30.0161C33.9596 25.4209 30.0984 21.6687 29.9325 21.6774C29.7663 21.6862 28.6569 22.1519 27.467 22.7122ZM58.6836 41.2986V59.1294L60.8663 57.0068C73.6512 44.5748 75.5455 42.6143 75.3636 42.0034C75.037 40.9051 73.1403 37.1282 72.1579 35.619C70.4523 32.9991 67.7328 29.8427 65.6705 28.0899C63.6286 26.3542 59.429 23.4679 58.9461 23.4679C58.7998 23.4679 58.6836 31.3619 58.6836 41.2986ZM9.50743 42.2094C6.82612 49.8577 6.50127 55.4356 8.28931 63.1336C8.5681 64.3342 8.8797 65.3163 8.98146 65.3163C9.34154 65.3163 33.6949 40.7579 33.6949 40.3948C33.6949 40.1109 31.0139 40.0266 21.9837 40.0266H10.2727L9.50743 42.2094ZM67.7867 52.4583C63.3595 56.8117 57.8069 62.2545 55.4471 64.5531C53.0873 66.8515 51.1569 68.8442 51.1569 68.9812C51.1569 69.1182 56.4262 69.2302 62.8666 69.2302H74.576L75.323 67.3485C77.0186 63.0752 77.774 58.3607 77.578 53.2736C77.4344 49.55 76.5812 44.5426 76.0898 44.5426C75.9501 44.5426 72.2136 48.1046 67.7867 52.4583ZM22.2522 54.4062C20.2257 56.5155 16.5338 60.2972 14.0478 62.8102L9.5282 67.3795L10.9152 70.2309C13.7314 76.0199 18.6358 81.3687 24.1935 84.7126C25.1774 85.3045 26.0918 85.7889 26.2257 85.7889C26.5602 85.7889 26.5373 50.9427 26.2029 50.7359C26.0562 50.6453 24.2784 52.2969 22.2522 54.4062ZM27.9894 74.8674L27.9746 86.6768L28.8026 87.1019C32.5072 89.0037 40.3253 90.2318 45.4366 89.7143C48.7179 89.3819 52.6643 88.5768 52.6595 88.2402C52.658 88.1339 47.1099 82.4245 40.3308 75.5526L28.0044 63.0583L27.9894 74.8674ZM38.2109 70.9698C38.2109 71.0986 38.4479 71.4163 38.7378 71.6758C39.0277 71.9356 42.699 75.6237 46.8965 79.8717C51.0939 84.1198 54.6592 87.5953 54.8194 87.5953C54.9792 87.5953 56.0965 87.1398 57.3017 86.5828C62.931 83.9819 68.2214 79.4147 71.7569 74.1042C72.8461 72.4682 73.737 71.0411 73.737 70.9327C73.737 70.8244 65.7436 70.7355 55.974 70.7355C46.2043 70.7355 38.2109 70.8409 38.2109 70.9698Z" fill="#608F88"/>
<path fill-rule="evenodd" clip-rule="evenodd" d="M31.1621 49.8807C33.6165 48.0457 36.522 46.6571 39.1273 46.074C41.4488 45.5545 44.9601 45.7293 47.2961 46.4805C50.5747 47.5351 53.841 49.7012 57.0247 52.9314L58.5726 54.5021L56.6184 56.4693C48.9106 64.2295 39.7447 65.3275 31.7302 59.4509C30.0368 58.2093 26.5037 54.8447 26.5037 54.4739C26.5037 54.1721 29.8957 50.8276 31.1621 49.8807ZM36.7635 49.4783C37.2739 48.8986 38.0629 48.2278 38.5171 47.9878C39.5747 47.429 39.0077 47.4231 37.4691 47.9769C35.059 48.8443 31.5252 51.2907 29.6198 53.4111L28.7592 54.3687L29.2071 54.9977C30.2118 56.4084 33.634 59.1484 35.7019 60.1976C36.8796 60.7952 39.1184 61.6219 39.5488 61.6183C39.6854 61.6169 39.2725 61.3152 38.6312 60.9473C34.5529 58.6083 33.6435 53.0227 36.7635 49.4783ZM54.2919 52.5221C52.3588 50.7494 50.5227 49.451 48.6916 48.5613C47.799 48.1275 46.7621 47.7074 46.3871 47.6276L45.7054 47.4824L46.2735 47.8817C47.4692 48.7222 48.6082 49.9609 49.1904 51.0537C49.7294 52.0661 49.7955 54.4623 49.7955 54.4623C49.7955 54.4623 49.7955 56.7347 49.1299 57.9363C48.5227 59.0325 47.2656 60.3721 46.1449 61.1172C45.2961 61.6817 46.9666 61.1922 48.755 60.3526C50.7756 59.4039 52.9516 57.82 54.7609 55.9814C56.3193 54.3975 56.3168 54.3785 54.2919 52.5221Z" fill="#608F88"/>
<path d="M125.62 66.9165C123.393 67.7592 120.865 68.1806 118.036 68.1806C108.767 68.1806 104.132 63.6963 104.132 54.7277C104.132 46.2407 108.767 41.9972 118.036 41.9972C120.865 41.9972 123.393 42.4185 125.62 43.2612V47.595C123.393 46.6319 120.986 46.1504 118.397 46.1504C112.198 46.1504 109.098 49.0095 109.098 54.7277C109.098 60.9275 112.198 64.0273 118.397 64.0273C120.986 64.0273 123.393 63.5458 125.62 62.5827V66.9165ZM130.135 57.8517V42.1777H134.92V57.8517C134.92 61.9688 137.027 64.0273 141.24 64.0273C145.454 64.0273 147.56 61.9688 147.56 57.8517V42.1777H152.346V57.8517C152.346 64.7376 148.644 68.1806 141.24 68.1806C133.837 68.1806 130.135 64.7376 130.135 57.8517ZM157.311 66.9165V62.5827C159.9 63.5458 162.825 64.0273 166.087 64.0273C170.048 64.0273 172.028 62.7031 172.028 60.0547C172.028 58.1286 170.812 57.1655 168.381 57.1655H164.336C159.051 57.1655 156.408 54.7578 156.408 49.9425C156.408 44.6456 160.17 41.9972 167.694 41.9972C170.584 41.9972 173.322 42.4185 175.911 43.2612V47.595C173.322 46.6319 170.584 46.1504 167.694 46.1504C163.361 46.1504 161.194 47.4144 161.194 49.9425C161.194 51.8686 162.241 52.8317 164.336 52.8317H168.381C174.002 52.8317 176.813 55.2394 176.813 60.0547C176.813 65.4719 173.238 68.1806 166.087 68.1806C162.825 68.1806 159.9 67.7592 157.311 66.9165ZM197.76 42.1777V46.331H190.357V68H185.571V46.331H178.168V42.1777H197.76ZM204.55 55.0166C204.55 61.0238 207.216 64.0273 212.549 64.0273C217.75 64.0273 220.35 61.0238 220.35 55.0166C220.35 49.1058 217.75 46.1504 212.549 46.1504C207.216 46.1504 204.55 49.1058 204.55 55.0166ZM199.584 55.125C199.584 46.3731 203.906 41.9972 212.549 41.9972C221.06 41.9972 225.316 46.3731 225.316 55.125C225.316 63.8287 221.06 68.1806 212.549 68.1806C204.291 68.1806 199.969 63.8287 199.584 55.125ZM239.961 63.8468C245.318 63.8468 247.996 60.6927 247.996 54.3846C247.996 49.0155 245.318 46.331 239.961 46.331H234.634V63.8468H239.961ZM229.848 68V42.1777H239.961C248.508 42.1777 252.781 46.2467 252.781 54.3846C252.781 63.4615 248.508 68 239.961 68H229.848ZM261.648 42.1777V68H256.862V42.1777H261.648ZM267.083 67.9639V42.1777H278.82C284.093 42.1777 286.73 44.4831 286.73 49.0938C286.73 52.2117 284.677 54.7939 280.572 56.8405L288.752 68H282.721L274.866 56.7502V54.5652C279.44 53.7827 281.728 52.0071 281.728 49.2382C281.728 47.3362 280.656 46.3851 278.513 46.3851H271.959V67.9639H267.083ZM308.706 42.1777V46.2949H295.776V52.7956H308.092V57.0752H295.722V63.8468H308.958V68H291.027V42.1777H308.706Z" fill="#608F88"/>
<path d="M328.71 75.2423H92.0266V80.4438H328.71V75.2423Z" fill="#608F88" mask="url(#path-4-inside-1_12_116)"/>
</g>
<defs>
<clipPath id="clip0_12_116">
<rect width="321" height="109" rx="25" fill="white"/>
</clipPath>
</defs>
</svg>
